<?xml version="1.0"?>
<svg xmlns="http://www.w3.org/2000/svg" xmlns:xlink="http://www.w3.org/1999/xlink" xmlns:svgjs="http://svgjs.com/svgjs" version="1.1" width="512" height="512" x="0" y="0" viewBox="0 0 512 512" style="enable-background:new 0 0 512 512" xml:space="preserve"><g><path xmlns="http://www.w3.org/2000/svg" d="M74.782,232a8,8,0,0,1-7.889-9.383A192.259,192.259,0,0,1,222.618,66.893a8,8,0,1,1,2.764,15.76A176.214,176.214,0,0,0,82.652,225.382,8,8,0,0,1,74.782,232Z" fill="#000000" data-original="#000000" style=""/><path xmlns="http://www.w3.org/2000/svg" d="M287.99,445.229a8,8,0,0,1-1.372-15.882,176.214,176.214,0,0,0,142.73-142.729,8,8,0,1,1,15.759,2.764A192.259,192.259,0,0,1,289.382,445.107,8.051,8.051,0,0,1,287.99,445.229Z" fill="#000000" data-original="#000000" style=""/><circle xmlns="http://www.w3.org/2000/svg" cx="72" cy="256" r="8" fill="#000000" data-original="#000000" style=""/><circle xmlns="http://www.w3.org/2000/svg" cx="256" cy="72" r="8" fill="#000000" data-original="#000000" style=""/><circle xmlns="http://www.w3.org/2000/svg" cx="440" cy="256" r="8" fill="#000000" data-original="#000000" style=""/><circle xmlns="http://www.w3.org/2000/svg" cx="256" cy="440" r="8" fill="#000000" data-original="#000000" style=""/><path xmlns="http://www.w3.org/2000/svg" d="M256,496A240,240,0,0,1,86.3,86.294a240,240,0,1,1,339.41,339.412A238.426,238.426,0,0,1,256,496Zm0-464A224,224,0,0,0,97.608,414.392,224,224,0,0,0,414.392,97.608,222.535,222.535,0,0,0,256,32Z" fill="#000000" data-original="#000000" style=""/><path xmlns="http://www.w3.org/2000/svg" d="M344,240c0-13.458-14.056-24-32-24s-32,10.542-32,24a8,8,0,0,0,16,0c0-3.262,6.233-8,16-8s16,4.738,16,8c0,50-35.21,91.186-80,95.607V248h8a8,8,0,0,0,0-16h-8V200a40.045,40.045,0,0,0-40-40,8,8,0,0,0,0,16,24.028,24.028,0,0,1,24,24v32H208a8,8,0,0,0,0,16h24v96a8,8,0,0,0,8,8C297.346,352,344,301.757,344,240Z" fill="#000000" data-original="#000000" style=""/></g></svg>
